<svg width="24" height="18" viewBox="0 0 24 18" fill="none" xmlns="http://www.w3.org/2000/svg">
<path d="M17.0082 8.81436C18.0008 8.72683 18.9991 8.72683 19.9917 8.81436L20.3086 8.84117C20.7421 8.88391 21.1725 8.95081 21.5961 9.04123C22.6757 9.26365 23.4597 9.65817 23.8067 10.39C24.0645 10.9345 24.0645 11.5666 23.8066 12.1113C23.4587 12.845 22.6646 13.2428 21.6041 13.452L21.2828 13.5188C20.8534 13.6012 20.4203 13.6574 19.9902 13.6868C19.183 13.7555 18.372 13.7681 17.5898 13.7251C17.5035 13.7251 17.4457 13.7248 17.3947 13.7236L17.2955 13.7199C17.1749 13.7137 17.0644 13.7011 17.0181 13.6875C16.4738 13.6505 15.9332 13.5717 15.4146 13.4547L15.2387 13.418C14.2566 13.1998 13.5294 12.8061 13.1929 12.1105C13.0655 11.8406 12.9996 11.5455 13 11.2494C12.9989 10.951 13.0653 10.6564 13.1975 10.3812C13.5478 9.67747 14.371 9.254 15.3999 9.04206C15.933 8.9278 16.4735 8.85148 17.0082 8.81436ZM19.905 9.80584C18.9701 9.72334 18.0298 9.72334 17.0858 9.80659C16.5885 9.84115 16.0943 9.91095 15.6029 10.0162C14.842 10.173 14.2602 10.4723 14.0871 10.8198C14.0233 10.9526 13.9905 11.0982 13.9911 11.2482C13.9909 11.399 14.0241 11.5479 14.0864 11.6799C14.2644 12.048 14.8134 12.323 15.6178 12.4807L15.8602 12.532C16.2661 12.6125 16.6841 12.6679 17.1487 12.703C17.2074 12.7148 17.2707 12.7221 17.3458 12.7259L17.6164 12.7305C18.3797 12.7718 19.1449 12.76 19.9146 12.6945C20.4107 12.6605 20.9036 12.589 21.4009 12.4779L21.5556 12.4452C22.262 12.2851 22.7508 12.023 22.9117 11.6836C23.0415 11.4096 23.0415 11.0914 22.9118 10.8177C22.7396 10.4546 22.1954 10.1807 21.3935 10.0155C20.9057 9.91136 20.4112 9.84157 19.9137 9.8065L19.905 9.80584ZM18.503 0C20.5201 0 22.1553 1.64219 22.1553 3.66794C22.1553 5.69368 20.5201 7.33587 18.503 7.33587C16.4858 7.33587 14.8506 5.69368 14.8506 3.66794C14.8506 1.64219 16.4858 0 18.503 0ZM18.503 0.995275C17.0332 0.995275 15.8416 2.19187 15.8416 3.66794C15.8416 5.14401 17.0332 6.3406 18.503 6.3406C19.9728 6.3406 21.1643 5.14401 21.1643 3.66794C21.1643 2.19187 19.9728 0.995275 18.503 0.995275Z" fill="#185DDC"/>
<path d="M13 0H15.475L20.5 14.025H13V0Z" fill="white"/>
<path d="M6.99182 8.81436C5.99922 8.72683 5.0009 8.72683 4.00831 8.81436L3.69139 8.84117C3.2579 8.88391 2.8275 8.95081 2.40394 9.04123C1.32434 9.26365 0.540345 9.65817 0.19335 10.39C-0.0644632 10.9345 -0.0644631 11.5666 0.193432 12.1113C0.541335 12.845 1.3354 13.2428 2.39586 13.452L2.71719 13.5188C3.14661 13.6012 3.57965 13.6574 4.00981 13.6868C4.817 13.7555 5.62796 13.7681 6.41022 13.7251C6.49646 13.7251 6.55433 13.7248 6.60533 13.7236L6.70451 13.7199C6.82508 13.7137 6.93556 13.7011 6.98191 13.6875C7.52615 13.6505 8.06677 13.5717 8.5854 13.4547L8.76132 13.418C9.74337 13.1998 10.4706 12.8061 10.8071 12.1105C10.9345 11.8406 11.0004 11.5455 11 11.2494C11.0011 10.951 10.9347 10.6564 10.8025 10.3812C10.4522 9.67747 9.62899 9.254 8.60006 9.04206C8.06696 8.9278 7.52651 8.85148 6.99182 8.81436ZM4.09503 9.80584C5.02992 9.72334 5.97021 9.72334 6.91422 9.80659C7.41149 9.84115 7.90573 9.91095 8.39707 10.0162C9.15804 10.173 9.73984 10.4723 9.91292 10.8198C9.97665 10.9526 10.0095 11.0982 10.0089 11.2482C10.0091 11.399 9.97585 11.5479 9.91357 11.6799C9.73557 12.048 9.18656 12.323 8.38216 12.4807L8.1398 12.532C7.7339 12.6125 7.31586 12.6679 6.85128 12.703C6.79261 12.7148 6.7293 12.7221 6.65417 12.7259L6.38357 12.7305C5.62032 12.7718 4.85514 12.76 4.08541 12.6945C3.58931 12.6605 3.09645 12.589 2.59905 12.4779L2.44437 12.4452C1.738 12.2851 1.24919 12.023 1.08831 11.6836C0.958539 11.4096 0.958539 11.0914 1.08823 10.8177C1.26041 10.4546 1.80458 10.1807 2.60648 10.0155C3.0943 9.91136 3.58881 9.84157 4.08631 9.8065L4.09503 9.80584ZM5.49704 0C3.47989 0 1.84467 1.64219 1.84467 3.66794C1.84467 5.69368 3.47989 7.33587 5.49704 7.33587C7.51418 7.33587 9.1494 5.69368 9.1494 3.66794C9.1494 1.64219 7.51418 0 5.49704 0ZM5.49704 0.995275C6.96684 0.995275 8.15836 2.19187 8.15836 3.66794C8.15836 5.14401 6.96684 6.3406 5.49704 6.3406C4.02723 6.3406 2.83575 5.14401 2.83575 3.66794C2.83575 2.19187 4.02723 0.995275 5.49704 0.995275Z" fill="#185DDC"/>
<path d="M11 0H8.525L3.5 14.025H11V0Z" fill="white"/>
<path d="M9.85839 11.6841C11.0615 11.578 12.2716 11.578 13.4748 11.6841L13.8589 11.7166C14.3843 11.7684 14.906 11.8495 15.4194 11.9591C16.728 12.2287 17.6783 12.7069 18.0989 13.594C18.4114 14.254 18.4114 15.0201 18.0988 15.6804C17.6771 16.5697 16.7146 17.0519 15.4292 17.3055L15.0397 17.3864C14.5192 17.4863 13.9943 17.5545 13.4729 17.5901C12.4945 17.6734 11.5116 17.6886 10.5634 17.6365C10.4588 17.6365 10.3887 17.6361 10.3269 17.6347L10.2066 17.6302C10.0605 17.6227 9.92659 17.6074 9.8704 17.5909C9.21072 17.5461 8.55542 17.4506 7.92679 17.3088L7.71355 17.2643C6.52319 16.9998 5.64164 16.5226 5.23387 15.6794C5.07943 15.3523 4.99955 14.9946 5.00002 14.6356C4.99868 14.274 5.07921 13.9169 5.23938 13.5833C5.66406 12.7303 6.66183 12.217 7.90902 11.9601C8.55519 11.8216 9.21029 11.7291 9.85839 11.6841ZM13.3696 12.8859C12.2364 12.7859 11.0967 12.7859 9.95246 12.8868C9.3497 12.9287 8.75063 13.0133 8.15506 13.1409C7.23268 13.3309 6.52746 13.6937 6.31767 14.1149C6.24042 14.2759 6.20062 14.4524 6.20128 14.6342C6.20106 14.817 6.24139 14.9975 6.31688 15.1575C6.53264 15.6036 7.19811 15.937 8.17314 16.1281L8.46691 16.1903C8.9589 16.2879 9.46562 16.3551 10.0287 16.3976C10.0999 16.4119 10.1766 16.4207 10.2677 16.4253L10.5957 16.4309C11.5208 16.481 12.4483 16.4667 13.3813 16.3873C13.9826 16.3461 14.58 16.2594 15.1829 16.1248L15.3704 16.0851C16.2266 15.891 16.8191 15.5733 17.0141 15.162C17.1714 14.8299 17.1714 14.4442 17.0142 14.1124C16.8055 13.6723 16.1459 13.3403 15.1739 13.14C14.5826 13.0138 13.9832 12.9292 13.3802 12.8867L13.3696 12.8859ZM11.6702 1C14.1153 1 16.0973 2.99053 16.0973 5.44598C16.0973 7.90142 14.1153 9.89195 11.6702 9.89195C9.22523 9.89195 7.24315 7.90142 7.24315 5.44598C7.24315 2.99053 9.22523 1 11.6702 1ZM11.6702 2.20639C9.88867 2.20639 8.44441 3.6568 8.44441 5.44598C8.44441 7.23515 9.88867 8.68556 11.6702 8.68556C13.4518 8.68556 14.896 7.23515 14.896 5.44598C14.896 3.6568 13.4518 2.20639 11.6702 2.20639Z" fill="#185DDC"/>
</svg>
