<svg width="15" height="18" viewBox="0 0 15 18" fill="none" xmlns="http://www.w3.org/2000/svg">
<path d="M10.7187 0.666748C13.382 0.666748 14.9745 2.26675 14.9995 4.94341V12.9926C14.9995 15.7067 13.4028 17.3334 10.7187 17.3334H4.28118C3.93784 17.3334 3.61201 17.3067 3.30534 17.2542L3.12368 17.2201C1.14784 16.8092 -0.000488281 15.2959 -0.000488281 12.9926V5.00758C-0.000488281 4.72925 0.0161784 4.46258 0.0495117 4.20758C0.340345 1.97008 1.87784 0.666748 4.28118 0.666748H10.7187ZM10.7112 1.88091H4.28118C2.23451 1.88091 1.19701 2.93341 1.19701 5.00758V12.9926C1.19701 15.0667 2.23451 16.1192 4.28118 16.1192H10.7112C12.757 16.1192 13.7878 15.0667 13.7878 12.9926V5.00758C13.7878 2.93341 12.757 1.88091 10.7112 1.88091ZM10.4937 11.9251C10.822 11.9251 11.0878 12.1951 11.0878 12.5284C11.0878 12.8617 10.822 13.1317 10.4937 13.1317H4.48451C4.15618 13.1317 3.88951 12.8617 3.88951 12.5284C3.88951 12.1951 4.15618 11.9251 4.48451 11.9251H10.4937ZM10.4937 8.39258C10.7228 8.36758 10.947 8.47758 11.0695 8.67508C11.192 8.87425 11.192 9.12592 11.0695 9.32508C10.947 9.52258 10.7228 9.63258 10.4937 9.60758H4.48451C4.17951 9.57258 3.94868 9.31175 3.94868 9.00008C3.94868 8.68842 4.17951 8.42675 4.48451 8.39258H10.4937ZM6.77784 4.86841C7.08284 4.90258 7.31368 5.16425 7.31368 5.47591C7.31368 5.78675 7.08284 6.04842 6.77784 6.08258H4.49201C4.18618 6.04842 3.95534 5.78675 3.95534 5.47591C3.95534 5.16425 4.18618 4.90258 4.49201 4.86841H6.77784Z" fill="#1B2559"/>
</svg>