<svg width="15" height="18" viewBox="0 0 15 18" fill="none" xmlns="http://www.w3.org/2000/svg">
<path d="M5.69164 11.3508C6.89479 11.2447 8.10488 11.2447 9.30802 11.3508L9.69216 11.3833C10.2176 11.4351 10.7393 11.5162 11.2527 11.6258C12.5613 11.8954 13.5116 12.3736 13.9322 13.2607C14.2447 13.9207 14.2447 14.6868 13.9321 15.3471C13.5104 16.2364 12.5479 16.7186 11.2625 16.9722L10.873 17.0531C10.3525 17.153 9.8276 17.2212 9.3062 17.2568C8.32779 17.3401 7.34481 17.3553 6.39661 17.3032C6.29208 17.3032 6.22193 17.3028 6.16012 17.3014L6.0399 17.2969C5.89375 17.2894 5.75984 17.2741 5.70365 17.2576C5.04397 17.2128 4.38867 17.1173 3.76004 16.9755L3.5468 16.931C2.35644 16.6665 1.47489 16.1893 1.06712 15.3461C0.912684 15.019 0.832805 14.6613 0.833268 14.3023C0.831927 13.9407 0.912458 13.5836 1.07263 13.25C1.49731 12.397 2.49508 11.8837 3.74227 11.6268C4.38844 11.4883 5.04354 11.3958 5.69164 11.3508ZM9.2029 12.5526C8.0697 12.4526 6.92996 12.4526 5.78571 12.5535C5.18295 12.5954 4.58388 12.68 3.98831 12.8076C3.06593 12.9976 2.36071 13.3604 2.15092 13.7816C2.07367 13.9426 2.03387 14.1191 2.03453 14.3009C2.03431 14.4837 2.07464 14.6642 2.15013 14.8242C2.36589 15.2703 3.03136 15.6037 4.00639 15.7948L4.30016 15.857C4.79215 15.9546 5.29887 16.0218 5.862 16.0643C5.93311 16.0786 6.00985 16.0874 6.10091 16.092L6.42891 16.0976C7.35406 16.1477 8.28155 16.1334 9.21456 16.054C9.81589 16.0128 10.4133 15.9261 11.0162 15.7915L11.2037 15.7518C12.0599 15.5577 12.6524 15.24 12.8474 14.8287C13.0047 14.4966 13.0047 14.1109 12.8475 13.7791C12.6388 13.339 11.9792 13.007 11.0072 12.8067C10.4159 12.6805 9.8165 12.5959 9.21347 12.5534L9.2029 12.5526ZM7.5035 0.666748C9.94852 0.666748 11.9306 2.65728 11.9306 5.11273C11.9306 7.56817 9.94852 9.5587 7.5035 9.5587C5.05848 9.5587 3.0764 7.56817 3.0764 5.11273C3.0764 2.65728 5.05848 0.666748 7.5035 0.666748ZM7.5035 1.87314C5.72192 1.87314 4.27766 3.32355 4.27766 5.11273C4.27766 6.9019 5.72192 8.35231 7.5035 8.35231C9.28508 8.35231 10.7293 6.9019 10.7293 5.11273C10.7293 3.32355 9.28508 1.87314 7.5035 1.87314Z" fill="#1B2559"/>
</svg>