<svg width="16" height="17" viewBox="0 0 16 17" fill="none" xmlns="http://www.w3.org/2000/svg">
    <path fill-rule="evenodd" clip-rule="evenodd" d="M8.78751 11.4684C9.69051 11.4684 10.4255 12.1982 10.4255 13.0952V15.4022C10.4255 15.5949 10.58 15.7494 10.778 15.7539H12.2075C13.334 15.7539 14.2498 14.8494 14.2498 13.7379V7.19494C14.2445 6.81244 14.0623 6.45244 13.7495 6.21319L8.80476 2.26969C8.14101 1.74394 7.21251 1.74394 6.54651 2.27119L1.63551 6.21169C1.31076 6.45844 1.12851 6.81844 1.12476 7.20769V13.7379C1.12476 14.8494 2.04051 15.7539 3.16701 15.7539H4.61001C4.81326 15.7539 4.97826 15.5927 4.97826 15.3947C4.97826 15.3512 4.98351 15.3077 4.99251 15.2664V13.0952C4.99251 12.2034 5.72301 11.4744 6.61926 11.4684H8.78751ZM12.2075 16.8789H10.7645C9.93801 16.8594 9.30051 16.2107 9.30051 15.4022V13.0952C9.30051 12.8184 9.07026 12.5934 8.78751 12.5934H6.62301C6.34626 12.5949 6.11751 12.8207 6.11751 13.0952V15.3947C6.11751 15.4509 6.11001 15.5049 6.09426 15.5559C6.01326 16.2984 5.37876 16.8789 4.61001 16.8789H3.16701C1.42026 16.8789 -0.000244141 15.4697 -0.000244141 13.7379V7.20244C0.00725586 6.45694 0.350756 5.77444 0.944006 5.32519L5.84526 1.39144C6.92451 0.536438 8.42826 0.536438 9.50526 1.38994L14.4418 5.32744C15.0215 5.76919 15.365 6.45019 15.3748 7.18669V13.7379C15.3748 15.4697 13.9543 16.8789 12.2075 16.8789Z" fill="#1B2559"/>
    </svg>