<svg width="17" height="19" viewBox="0 0 17 19" fill="none" xmlns="http://www.w3.org/2000/svg">
<path fill-rule="evenodd" clip-rule="evenodd" d="M11.6613 0.833252C12.0063 0.833252 12.2863 1.11325 12.2863 1.45825L12.2867 2.16476C13.5035 2.24818 14.514 2.66496 15.2292 3.38167C16.0101 4.16583 16.4209 5.29333 16.4168 6.64583V14.2483C16.4168 17.025 14.6534 18.75 11.8159 18.75H4.76758C1.93008 18.75 0.166748 17.0008 0.166748 14.185V6.64417C0.166748 4.02516 1.73929 2.34403 4.30399 2.16505L4.3045 1.45825C4.3045 1.11325 4.5845 0.833252 4.9295 0.833252C5.2745 0.833252 5.5545 1.11325 5.5545 1.45825L5.55425 2.14909H11.0359L11.0363 1.45825C11.0363 1.11325 11.3163 0.833252 11.6613 0.833252ZM15.1667 8.25325H1.41675V14.185C1.41675 16.3233 2.60675 17.5 4.76758 17.5H11.8159C13.9767 17.5 15.1668 16.345 15.1668 14.2483L15.1667 8.25325ZM12.0011 13.4968C12.3461 13.4968 12.6261 13.7768 12.6261 14.1218C12.6261 14.4668 12.3461 14.7468 12.0011 14.7468C11.6561 14.7468 11.3727 14.4668 11.3727 14.1218C11.3727 13.7768 11.6486 13.4968 11.9936 13.4968H12.0011ZM8.30316 13.4968C8.64816 13.4968 8.92816 13.7768 8.92816 14.1218C8.92816 14.4668 8.64816 14.7468 8.30316 14.7468C7.95816 14.7468 7.67483 14.4668 7.67483 14.1218C7.67483 13.7768 7.95066 13.4968 8.29566 13.4968H8.30316ZM4.5975 13.4968C4.9425 13.4968 5.2225 13.7768 5.2225 14.1218C5.2225 14.4668 4.9425 14.7468 4.5975 14.7468C4.2525 14.7468 3.96833 14.4668 3.96833 14.1218C3.96833 13.7768 4.245 13.4968 4.59 13.4968H4.5975ZM12.0011 10.2579C12.3461 10.2579 12.6261 10.5379 12.6261 10.8829C12.6261 11.2279 12.3461 11.5079 12.0011 11.5079C11.6561 11.5079 11.3727 11.2279 11.3727 10.8829C11.3727 10.5379 11.6486 10.2579 11.9936 10.2579H12.0011ZM8.30316 10.2579C8.64816 10.2579 8.92816 10.5379 8.92816 10.8829C8.92816 11.2279 8.64816 11.5079 8.30316 11.5079C7.95816 11.5079 7.67483 11.2279 7.67483 10.8829C7.67483 10.5379 7.95066 10.2579 8.29566 10.2579H8.30316ZM4.5975 10.2579C4.9425 10.2579 5.2225 10.5379 5.2225 10.8829C5.2225 11.2279 4.9425 11.5079 4.5975 11.5079C4.2525 11.5079 3.96833 11.2279 3.96833 10.8829C3.96833 10.5379 4.245 10.2579 4.59 10.2579H4.5975ZM11.0359 3.39909H5.55425L5.5545 4.20075C5.5545 4.54575 5.2745 4.82575 4.9295 4.82575C4.5845 4.82575 4.3045 4.54575 4.3045 4.20075L4.30405 3.418C2.4372 3.57483 1.41675 4.70646 1.41675 6.64417V7.00325H15.1667L15.1668 6.64417C15.1701 5.615 14.8934 4.815 14.3442 4.265C13.8622 3.78151 13.1575 3.49275 12.287 3.4184L12.2863 4.20075C12.2863 4.54575 12.0063 4.82575 11.6613 4.82575C11.3163 4.82575 11.0363 4.54575 11.0363 4.20075L11.0359 3.39909Z" fill="#1B2559"/>
</svg>