<svg version="1.2" xmlns="http://www.w3.org/2000/svg" viewBox="0 0 15 16" width="15" height="16">
	<title>settings-svg</title>
	<style>
		.s0 { fill: none;stroke: #7c8ab5;stroke-width: .9 } 
	</style>
	<path id="Layer" class="s0" d="m2.6 12.7c-0.1 0.1-0.2 0-0.3-0.1l-1.3-2.2c0-0.2 0-0.3 0.1-0.4l1.1-0.7c0.2-0.1 0.3-0.2 0.3-0.4v-1.8c0-0.2-0.1-0.3-0.3-0.4l-1.1-0.7c-0.1-0.1-0.1-0.3-0.1-0.4l1.3-2.2c0.1-0.1 0.2-0.2 0.3-0.1l1.2 0.6c0.1 0.1 0.3 0.1 0.4 0l1.6-0.9c0.1-0.1 0.2-0.2 0.2-0.4v-1.3c0-0.2 0.1-0.3 0.3-0.3h2.5c0.1 0 0.2 0.1 0.2 0.3l0.1 1.3c0 0.2 0.1 0.3 0.2 0.4l1.5 0.9c0.2 0.1 0.4 0.1 0.5 0l1.1-0.6c0.2-0.1 0.3 0 0.4 0.1l1.2 2.2c0.1 0.2 0.1 0.3-0.1 0.4l-1.1 0.7c-0.1 0.1-0.2 0.2-0.2 0.4v1.8c0 0.2 0.1 0.3 0.2 0.4l1.1 0.7c0.2 0.1 0.2 0.3 0.1 0.4l-1.2 2.2c-0.1 0.1-0.3 0.2-0.4 0.1l-1.1-0.6c-0.1-0.1-0.3-0.1-0.5 0l-1.5 0.9c-0.1 0.1-0.2 0.2-0.2 0.4l-0.1 1.3c0 0.2-0.1 0.3-0.2 0.3h-2.5c-0.2 0-0.3-0.1-0.3-0.3v-1.3c0-0.2-0.1-0.3-0.2-0.4l-1.6-0.9c-0.1-0.1-0.3-0.1-0.4 0zm2.3-6.3c0.8-1.5 2.7-2 4.1-1.1 1.4 0.8 1.9 2.7 1.1 4.2-0.9 1.5-2.7 2-4.1 1.1-1.4-0.8-1.9-2.7-1.1-4.2z"/>
</svg>
